<svg width="1440" height="420" viewBox="0 0 1440 420" fill="none" xmlns="http://www.w3.org/2000/svg">
<mask id="mask0_452_2760" style="mask-type:alpha" maskUnits="userSpaceOnUse" x="0" y="0" width="1440" height="420">
<rect width="1440" height="420" fill="#1E1E1E"/>
</mask>
<g mask="url(#mask0_452_2760)">
<path d="M1338.81 130.5L1453.81 0H1471.31L1408.81 72C1439.21 63.2 1409.14 109.333 1390.31 133.5L1487.81 35.5V63L1471.31 78.5L1281.81 260C1222.64 319.5 1098.11 444.2 1073.31 467C1048.51 489.8 1049.31 476.5 1052.81 467L1364.81 159.5C1358.14 165.833 1350.91 168.9 1375.31 130.5C1399.71 92.1 1374.47 116.5 1358.81 133.5C1334.81 149.9 1335.47 138.333 1338.81 130.5Z" fill="#580100"/>
<path d="M112 289.09L-3.00018 419.59L-20.5 419.59L42 347.59C11.6 356.39 41.6667 310.256 60.5 286.09L-37 384.09L-37 356.59L-20.5 341.09L169 159.59C228.167 100.09 352.7 -24.6102 377.5 -47.4102C402.3 -70.2101 401.5 -56.9102 398 -47.4102L85.9999 260.09C92.6665 253.756 99.8999 250.69 75.4999 289.09C51.0999 327.49 76.3332 303.09 91.9998 286.09C116 269.69 115.333 281.256 112 289.09Z" fill="#580100"/>
<path d="M1331.81 255L1134.31 439.5C1111.11 443.9 1113.64 437.667 1117.81 434L1488.81 88.5L1502.81 94.5L1331.81 255Z" fill="#580100"/>
<path d="M119 164.59L316.5 -19.9102C339.7 -24.3101 337.167 -18.0768 333 -14.4102L-38.0002 331.09L-52.0002 325.09L119 164.59Z" fill="#580100"/>
<path d="M1289.31 360C1267.31 374.8 1244.47 410.833 1235.81 427L1188.81 422.5L1194.81 416.5L1486.81 124.5V168L1416.81 237.5C1383.47 272.167 1311.31 345.2 1289.31 360Z" fill="#580100"/>
<path d="M161.5 59.5898C183.5 44.7898 206.333 8.7565 215 -7.41016L262 -2.91016L256 3.08984L-36 295.09L-36 251.59L34 182.09C67.3333 147.423 139.5 74.3898 161.5 59.5898Z" fill="#580100"/>
<path d="M1485.81 281.001C1494.31 259.501 1508.71 220.601 1498.31 237.001C1488.03 253.208 1348.31 364.836 1277.31 420.54L1281.31 433L1414.81 331L1329.31 419.5L1345.81 422.501L1485.81 281.001Z" fill="#580100"/>
<path d="M-35 138.589C-43.5 160.089 -57.9 198.989 -47.5 182.589C-37.222 166.382 102.497 54.7539 173.5 -0.95018L169.5 -13.4106L36 88.5893L121.5 0.0893507L105 -2.91067L-35 138.589Z" fill="#580100"/>
</g>
</svg>
