<svg width="195" height="112" viewBox="0 0 195 112" fill="none" xmlns="http://www.w3.org/2000/svg">
<mask id="mask0_382_1121" style="mask-type:alpha" maskUnits="userSpaceOnUse" x="0" y="0" width="307" height="349">
<ellipse cx="153.315" cy="174.141" rx="153.315" ry="174.141" fill="#F3B244" fill-opacity="0.54"/>
</mask>
<g mask="url(#mask0_382_1121)">
<path d="M-176.491 318.731C-176.491 316.116 -176.491 313.518 -176.491 310.936C-146.452 293.75 -115.789 278.888 -84.502 266.107C-50.4964 252.213 -15.8668 241.659 18.7628 230.911C33.8269 226.264 48.8464 221.229 63.5985 215.274C80.2225 208.545 94.6626 196.829 106.161 179.353C114.317 166.959 120.289 152.871 125.415 138.106C131.833 119.467 136.557 100.054 141.682 80.7859C148.189 56.1442 154.83 31.551 159.688 6.23154C164.145 -17.0546 168.557 -40.2923 173.415 -63.4333C177.872 -84.7345 183.443 -105.648 191.465 -125.207C205.415 -159.241 226.585 -180.397 255.866 -187.126C269.147 -190.176 282.563 -190.999 296.022 -190.418C320.267 -189.45 344.468 -187.804 368.713 -186.835C407.443 -185.238 445.95 -187.174 484.19 -195.792C489.181 -196.953 494.128 -198.406 499.075 -199.713C509.356 -199.713 519.636 -199.713 529.917 -199.713C525.995 -198.261 522.117 -196.663 518.151 -195.404C480.758 -183.301 442.696 -177.928 404.323 -176.911C379.855 -176.233 355.432 -176.766 330.964 -176.911C312.958 -177.056 294.953 -177.298 276.992 -174.345C263.131 -172.07 249.716 -167.761 237.326 -159.047C221.058 -147.622 208.98 -130.629 199.71 -110.006C191.198 -91.1733 185.136 -70.8887 180.412 -49.9747C175.287 -27.1243 171.008 -3.93498 165.66 18.8186C157.994 51.6904 149.749 84.32 141.638 116.998C137.181 134.862 132.011 152.339 125.014 168.799C114.941 192.521 100.59 210.046 81.2921 220.019C74.4732 223.601 67.4314 226.845 60.3004 228.926C39.0413 235.123 17.6931 240.739 -3.65509 246.548C-45.6384 258.022 -86.9532 272.594 -127.109 292.491C-143.733 300.673 -160.045 309.968 -176.491 318.731H-176.491Z" fill="#FF0000" fill-opacity="0.54"/>
<path d="M-164.591 327.009C-168.246 327.009 -171.9 326.912 -175.555 327.106C-176.714 327.154 -176.446 326.38 -176.491 325.557C-175.912 325.315 -175.288 325.169 -174.753 324.879C-131.566 298.979 -86.8196 279.033 -40.6468 264.606C-11.098 255.408 18.8073 248.824 48.7126 242.24C61.5037 239.383 74.2503 236.188 86.5511 230.282C105.493 221.181 120.066 205.35 130.228 182.403C135.131 171.219 139.231 159.601 142.395 147.401C147.164 128.714 151.621 109.833 156.167 91.0009C162.763 63.5029 169.359 36.0049 175.911 8.45851C180.323 -10.2285 184.334 -29.1091 189.058 -47.6993C194.005 -67.1125 200.646 -85.5091 209.47 -102.502C225.069 -132.662 246.284 -151.882 273.515 -159.095C283.008 -161.613 292.68 -163.646 302.351 -164.372C321.114 -165.728 339.966 -166.309 358.774 -166.647C393.092 -167.325 427.454 -168.439 461.593 -173.812C486.953 -177.782 512.045 -183.543 536.602 -192.887C536.602 -189.466 536.602 -186.044 536.602 -182.623C535.844 -182.333 535.086 -182.042 534.284 -181.752C499.254 -169.794 463.51 -163.501 427.454 -160.354C401.961 -158.175 376.379 -157.013 350.841 -155.464C332.568 -154.399 314.251 -153.383 296.111 -149.51C282.251 -146.508 268.791 -141.812 256.134 -133.485C238.707 -121.963 225.426 -104.535 214.596 -83.5242C204.835 -64.7403 198.061 -44.0684 192.668 -22.6704C186.384 2.50385 180.323 27.7749 174.44 53.0943C167.621 82.2383 161.069 111.479 154.34 140.623C150.15 158.778 145.515 176.69 138.473 193.344C129.292 215.032 116.011 230.476 98.3171 239.287C87.5316 244.66 76.3896 247.807 65.0246 249.937C42.384 254.246 19.6095 257.828 -2.98659 262.718C-58.2067 274.676 -111.377 295.638 -162.541 325.508C-163.254 325.944 -163.923 326.525 -164.591 327.009Z" fill="#FF0000" fill-opacity="0.54"/>
<path d="M-139.365 327.009C-143.822 327.009 -148.279 327.009 -152.736 327.009C-152.067 326.573 -151.488 326.041 -150.819 325.653C-127.688 312.63 -104.067 301.593 -79.9112 292.346C-35.8778 275.402 9.18082 266.3 54.7742 261.169C67.9218 259.716 81.0249 258.07 93.9052 254.004C104.2 250.76 114.05 246.016 122.919 238.173C134.373 228.006 142.262 213.967 148.189 197.797C154.206 181.386 158.485 164.151 161.783 146.529C171.409 94.7284 184.379 44.3316 197.214 -6.16209C202.875 -28.5284 209.872 -50.1202 220.033 -69.727C230.106 -89.1886 242.228 -105.842 257.827 -117.848C269.816 -127.095 282.786 -132.856 296.29 -136.778C315.811 -142.393 335.688 -144.281 355.566 -146.024C383.733 -148.445 411.9 -150.575 440.067 -153.431C464.357 -155.949 488.557 -160.257 512.491 -166.502C520.557 -168.633 528.58 -171.053 536.602 -173.377C536.602 -170.117 536.602 -166.857 536.602 -163.598C536.112 -163.453 535.666 -163.21 535.176 -163.065C498.452 -152.124 461.148 -146.412 423.711 -142.248C397.861 -139.343 372.011 -136.874 346.206 -133.873C330.028 -131.985 313.983 -128.741 298.295 -123.174C278.061 -115.96 259.878 -103.906 244.68 -84.5895C230.15 -66.1445 219.454 -44.2623 211.655 -20.0563C199.799 16.7367 190.306 54.6917 181.749 92.9856C176.624 115.788 172.925 139.171 168.512 162.263C165.259 179.352 161.604 196.297 155.9 212.369C146.808 238.028 132.145 254.923 111.376 262.573C99.6099 266.93 87.5764 268.818 75.4539 269.931C59.8549 271.287 44.2115 272.158 28.6126 273.804C-23.5323 279.275 -74.0728 294.186 -123.009 318.392C-128.491 321.103 -133.883 324.153 -139.365 327.009Z" fill="#FF0000" fill-opacity="0.54"/>
<path d="M536.602 -154.35C536.602 -151.09 536.602 -147.83 536.602 -144.57C536.067 -144.425 535.532 -144.28 534.998 -144.135C507.722 -137.26 480.223 -132.467 452.68 -128.546C424.914 -124.576 397.148 -120.945 369.426 -116.782C351.243 -114.071 333.281 -110.004 315.632 -103.614C276.813 -89.5744 248.201 -59.1717 229.794 -12.1153C223.465 4.00584 218.162 20.7564 213.215 37.6522C205.148 65.1985 197.482 92.9386 193.07 121.986C189.415 145.756 186.162 169.575 182.596 193.345C180.1 210.047 177.159 226.556 171.944 242.241C166.329 259.088 157.861 272.547 144.936 280.535C139.32 284.021 133.348 286.296 127.242 287.797C113.694 291.186 99.9219 291.476 86.1949 291.137C66.4511 290.701 46.752 289.539 26.9636 290.75C-19.8777 293.509 -65.3373 305.467 -109.505 325.994C-110.084 326.236 -110.574 326.671 -111.109 327.01C-116.19 327.01 -121.271 327.01 -126.351 327.01C-125.816 326.671 -125.282 326.236 -124.747 325.945C-117.883 322.653 -111.064 319.264 -104.156 316.166C-69.4376 300.674 -33.8721 290.169 2.54021 284.795C24.245 281.552 46.0834 280.293 67.9219 280.099C82.8523 280.002 97.7827 279.373 112.49 275.79C122.563 273.321 132.189 269.303 140.836 261.799C151.844 252.262 159.064 238.707 164.234 222.973C169.538 206.852 172.657 189.859 175.599 172.818C179.432 150.404 182.953 127.844 187.053 105.477C192.401 76.6722 200.513 49.0774 208.223 21.2405C213.081 3.76378 218.563 -13.374 225.426 -29.7373C243.655 -73.066 270.797 -101.339 307.343 -114.022C323.477 -119.59 339.878 -123.221 356.457 -125.448C386.318 -129.417 416.223 -132.903 446.128 -136.776C470.953 -140.02 495.644 -144.28 520.201 -150.283C525.683 -151.59 531.12 -152.994 536.602 -154.35Z" fill="#FF0000" fill-opacity="0.54"/>
<path d="M536.602 -135.809C536.602 -132.387 536.602 -128.966 536.602 -125.545C536.068 -125.545 535.488 -125.545 534.953 -125.448C503.399 -120.123 471.845 -114.846 440.335 -109.424C417.07 -105.454 393.806 -101.678 370.585 -97.1759C353.382 -93.787 336.491 -88.4617 320.045 -80.7642C287.911 -65.7081 262.998 -39.3236 246.062 -0.255173C239.332 15.2366 233.761 31.4062 228.457 47.8179C220.212 73.331 213.17 99.2798 209.159 126.584C205.594 150.839 203.321 175.383 201.181 199.928C199.532 218.47 198.062 237.109 194.897 255.36C193.204 265.236 191.109 274.87 187.855 284.068C181.616 301.4 171.321 311.711 157.059 315.197C152.112 316.407 146.986 317.037 141.95 317.279C124.524 318.053 107.231 315.149 89.9389 312.583C72.067 309.969 54.1505 307.403 36.1004 307.064C2.40674 306.434 -30.8412 311.469 -63.5989 321.878C-68.4569 323.379 -73.2257 325.315 -78.0836 327.01C-84.2637 327.01 -90.4439 327.01 -96.624 327.01C-96.0892 326.719 -95.5098 326.332 -94.9304 326.09C-84.6351 322.265 -74.429 318.102 -64.0446 314.713C-20.6796 300.625 23.2647 295.735 67.833 299.512C84.2787 300.915 100.724 301.835 117.17 302.513C126.307 302.852 135.443 301.593 144.446 298.785C160.268 293.896 171.722 281.841 178.63 262.428C182.641 251.196 185.449 239.384 187.098 227.184C190.084 205.931 192.803 184.63 195.298 163.232C199.666 125.616 206.128 88.726 217.137 53.3368C223.822 31.7451 230.329 10.0566 239.154 -10.2764C252.435 -40.7759 270.53 -64.643 294.596 -80.4253C309.75 -90.3014 325.794 -96.5949 342.24 -101.146C367.109 -108.069 392.379 -111.409 417.56 -115.33C449.917 -120.414 482.318 -125.594 514.675 -130.967C522.029 -132.178 529.293 -134.163 536.602 -135.809Z" fill="#FF0000" fill-opacity="0.54"/>
<path d="M237.994 -199.713C237.682 -199.519 237.37 -199.229 237.014 -199.132C213.125 -190.854 196.323 -171.247 185.047 -142.877C178.228 -125.643 173.415 -107.295 169.716 -88.6075C164.546 -62.6587 159.643 -36.6131 155.097 -10.4706C149.838 19.3995 142.663 48.3983 134.551 77.1066C129.203 96.1324 124.211 115.4 117.348 133.652C111.599 148.998 104.824 163.377 95.6431 175.625C84.3227 190.729 70.6403 200.799 55.5762 207.77C37.9271 215.952 19.7878 221.955 1.6931 228.007C-35.9225 240.594 -73.3599 253.762 -110.084 270.415C-131.834 280.291 -153.36 290.991 -174.575 302.755C-175.198 303.094 -175.867 303.336 -176.491 303.626C-176.491 301.012 -176.491 298.414 -176.491 295.832C-175.956 295.59 -175.421 295.348 -174.931 295.057C-159.065 287.021 -143.243 278.694 -127.288 270.996C-89.3599 252.648 -50.5409 237.883 -11.5882 223.601C8.24464 216.339 28.0775 208.981 47.3311 199.298C58.5623 193.634 69.1695 186.614 78.7071 176.884C91.8548 163.377 101.392 146.142 109.058 126.922C115.61 110.511 120.646 93.1793 125.727 75.8963C133.615 49.1729 140.969 22.3043 145.56 -5.77466C150.239 -34.3861 154.83 -62.9976 159.688 -91.5606C163.209 -112.087 167.22 -132.469 173.192 -152.124C178.629 -170.036 186.117 -186.109 197.571 -198.599C197.838 -198.89 198.016 -199.326 198.239 -199.713C211.491 -199.713 224.743 -199.713 237.994 -199.713Z" fill="#FF0000" fill-opacity="0.54"/>
<path d="M182.641 327.009C183.651 326.073 184.646 325.137 185.627 324.201C190.173 319.796 193.471 314.083 196.056 307.596C200.78 295.687 203.276 282.809 204.524 269.641C206.485 249.405 208 229.12 209.382 208.787C211.075 183.129 212.858 157.47 216.29 132.103C220.212 102.813 227.922 75.1701 237.059 48.1563C242.407 32.2287 248.156 16.5917 255.198 1.77764C271.599 -32.8369 294.819 -56.4135 323.655 -70.9371C341.571 -79.9417 360.156 -85.9932 379.053 -89.8178C403.343 -94.6589 427.722 -98.8224 452.056 -102.986C479.599 -107.73 507.187 -112.087 534.775 -116.59C535.354 -116.686 535.978 -116.735 536.602 -116.783C536.602 -113.523 536.602 -110.28 536.602 -107.052C536.067 -106.907 535.533 -106.762 534.953 -106.665C515.789 -103.696 496.61 -100.743 477.416 -97.8057C447.466 -93.1582 417.427 -88.8011 387.7 -81.6845C368.312 -77.0854 349.193 -71.1307 330.741 -61.7388C302.975 -47.5541 279.978 -25.333 263.711 7.82914C249.27 37.312 238.485 69.167 230.552 102.571C224.134 129.73 221.549 157.858 220.257 186.13C218.964 213.386 218.251 240.691 217.137 267.946C216.29 287.941 214.997 307.838 210.14 327.009C200.988 327.009 191.822 327.009 182.641 327.009Z" fill="#FF0000" fill-opacity="0.54"/>
<path d="M158.529 -199.713C164.59 -199.713 170.652 -199.713 176.713 -199.713C174.351 -194.194 171.721 -188.869 169.626 -183.156C164.278 -168.584 160.668 -153.141 158.172 -137.407C153.225 -106.617 148.501 -75.7783 144.089 -44.8915C138.741 -7.56586 132.367 29.2272 121.002 64.3743C115.253 82.2383 110.128 100.49 103.131 117.676C95.242 137.089 85.5261 154.517 72.3339 168.363C62.1723 178.965 50.7628 186.421 38.8631 192.811C19.3422 203.317 -0.758148 211.353 -20.9476 219.244C-64.8028 236.43 -108.524 254.294 -151.31 275.886C-159.733 280.146 -168.112 284.6 -176.491 289.006C-176.491 286.23 -176.491 283.454 -176.491 280.679C-175.778 280.437 -175.065 280.243 -174.396 279.904C-157.772 271.723 -141.282 263.008 -124.48 255.505C-90.1176 240.158 -55.5772 225.441 -21.1259 210.482C-1.96149 202.203 17.0246 193.392 35.5205 182.693C63.0191 166.766 83.5651 141.398 97.1584 106.299C101.972 93.8087 106.384 80.9312 110.618 68.0536C118.061 45.6389 124.746 22.8368 128.891 -1.12708C134.462 -33.5147 138.161 -66.2896 142.217 -99.016C146.362 -132.953 149.437 -167.18 158.529 -199.713Z" fill="#FF0000" fill-opacity="0.54"/>
<path d="M132.501 -199.713C136.72 -199.713 140.939 -199.713 145.159 -199.713C145.114 -198.987 145.069 -198.261 144.98 -197.534C142.796 -180.735 140.301 -163.985 138.473 -147.089C134.551 -111.119 131.03 -75.1006 127.242 -39.1305C121.983 11.3632 107.855 57.8386 89.4035 102.232C79.8214 125.276 67.1194 144.98 50.3171 159.697C38.5065 170.057 25.76 178.239 12.6569 185.452C-9.00328 197.459 -31.3766 207.093 -53.6607 216.823C-94.8864 234.784 -135.934 253.374 -176.491 273.853C-176.491 271.109 -176.491 268.35 -176.491 265.574C-175.778 265.332 -175.065 265.139 -174.352 264.8C-158.976 257.441 -143.6 249.889 -128.179 242.724C-94.1733 226.845 -60.0786 211.353 -26.1175 195.377C-7.75536 186.76 10.1611 176.738 27.3199 164.442C49.7823 148.321 68.0108 126.487 80.9355 97.3427C85.0804 87.9024 88.8242 78.22 92.657 68.5377C107.097 32.035 115.833 -6.79132 120.111 -47.5058C123.543 -79.7965 125.95 -112.233 128.133 -144.669C129.337 -163.065 131.03 -181.365 132.501 -199.713Z" fill="#FF0000" fill-opacity="0.54"/>
<path d="M111.732 -199.713C115.179 -199.713 118.64 -199.713 122.117 -199.713C122.072 -198.406 122.072 -197.099 121.983 -195.792C121.404 -183.979 120.735 -172.118 120.245 -160.306C118.774 -126.127 117.482 -91.9479 113.961 -58.0111C111.465 -34.1925 108.523 -10.519 102.819 12.3314C96.5345 37.4572 87.3979 60.8885 77.5929 83.9326C64.8018 113.996 46.9299 137.525 24.4229 155.195C10.0274 166.475 -4.94759 176.206 -20.5911 184C-48.7137 198.04 -76.97 211.498 -105.226 225.005C-128.937 236.382 -152.736 247.517 -176.491 258.748C-176.491 255.973 -176.491 253.213 -176.491 250.47C-169.717 247.371 -162.942 244.37 -156.212 241.126C-119.934 223.795 -83.6106 206.608 -47.4657 188.89C-28.1231 179.401 -9.18156 168.46 8.77946 154.905C27.1416 140.962 43.721 124.211 57.0915 102.329C66.8965 86.3532 74.2503 68.4408 81.5149 50.3832C91.5874 25.209 98.7183 -1.17552 102.507 -29.206C107.231 -63.7722 109.459 -98.6288 110.261 -133.679C110.737 -155.69 111.227 -177.702 111.732 -199.713Z" fill="#FF0000" fill-opacity="0.54"/>
<path d="M93.5038 -199.713C96.6236 -199.713 99.7285 -199.713 102.819 -199.713C102.863 -198.89 102.952 -198.067 102.952 -197.292C102.908 -184.754 102.863 -172.263 102.863 -159.725C102.774 -127.966 102.328 -96.2082 99.476 -64.5952C97.4704 -43.0034 94.7517 -21.6538 90.1166 -0.739838C85.838 18.2861 78.7517 35.5691 71.8882 53.0458C56.0219 93.4214 33.3812 125.18 3.56497 148.272C-14.6189 162.36 -33.7833 173.737 -53.3042 184.048C-91.6329 204.285 -130.63 222.246 -169.627 240.206C-171.9 241.271 -174.218 242.191 -176.491 243.159C-176.491 240.384 -176.491 237.608 -176.491 234.833C-175.733 234.591 -174.931 234.445 -174.173 234.106C-150.909 223.262 -127.6 212.612 -104.379 201.428C-79.2875 189.374 -54.3738 176.593 -30.3069 161.15C-12.1231 149.482 5.21399 136.072 20.7683 118.886C39.3979 98.311 53.5706 73.1368 65.4258 45.3967C75.9884 20.6098 84.0553 -5.19374 87.9327 -33.1758C91.1417 -56.6072 93.4592 -80.1354 93.7712 -103.906C94.1278 -133.631 93.7712 -163.404 93.7266 -193.129C93.7266 -195.307 93.5929 -197.486 93.5038 -199.713Z" fill="#FF0000" fill-opacity="0.54"/>
<path d="M77.5484 -199.713C80.2819 -199.713 83.0005 -199.713 85.7043 -199.713C86.0163 -188.094 86.3729 -176.475 86.6403 -164.856C87.398 -134.696 87.5317 -104.583 85.3033 -74.5196C84.0554 -57.5754 82.0497 -40.8249 79.242 -24.2196C75.008 0.712555 66.4954 23.1273 56.8241 45.0095C39.6207 83.8843 16.7126 115.352 -12.6133 138.735C-26.7415 150.015 -41.4936 159.746 -56.6022 168.508C-87.4881 186.469 -119.132 201.719 -150.998 216.291C-159.466 220.164 -167.978 223.795 -176.491 227.523C-176.491 224.779 -176.491 222.02 -176.491 219.244C-153.984 208.835 -131.343 198.814 -108.97 187.922C-83.878 175.673 -59.3655 161.828 -35.7443 145.222C-2.49632 121.839 25.0469 90.3715 45.1918 48.2047C53.1249 31.5994 60.8798 14.8488 66.0943 -3.64452C73.7155 -30.8036 76.7907 -59.1246 78.3506 -87.8813C79.6431 -112.523 79.3311 -137.261 78.618 -161.952C78.2615 -174.539 77.9049 -187.126 77.5484 -199.713Z" fill="#FF0000" fill-opacity="0.54"/>
<path d="M-176.491 211.45C-176.491 208.513 -176.491 205.576 -176.491 202.639C-175.822 202.445 -175.154 202.3 -174.53 202.009C-161.293 196.248 -148.012 190.778 -134.909 184.629C-107.633 171.752 -80.9365 157.131 -55.2206 139.364C-18.6746 114.093 11.409 79.5756 33.5149 33.3422C44.2559 10.879 53.6598 -12.3103 58.1612 -38.5011C61.5929 -58.5437 63.4648 -78.8283 64.2225 -99.3549C65.203 -126.514 64.3562 -153.625 63.2865 -180.735C63.0637 -187.029 62.8854 -193.371 62.7072 -199.713C65.2921 -199.713 67.8919 -199.713 70.5066 -199.713C70.462 -198.987 70.4175 -198.261 70.4175 -197.534C70.8631 -184.366 71.398 -171.247 71.7545 -158.079C72.6013 -128.402 72.6905 -98.774 70.1501 -69.1943C67.1194 -34.1925 59.7211 -1.22395 45.4592 29.0335C31.955 57.7902 16.5789 84.3199 -3.34308 106.057C-20.5464 124.841 -39.6663 139.558 -59.722 152.339C-89.2708 171.268 -119.978 186.614 -151.087 200.605C-159.51 204.43 -168.023 207.867 -176.491 211.45Z" fill="#FF0000" fill-opacity="0.54"/>
<path d="M48.2224 -199.713C50.6886 -199.713 53.1546 -199.713 55.6208 -199.713C56.2001 -186.061 56.8241 -172.409 57.2698 -158.805C58.2503 -129.031 58.2949 -99.3065 55.2197 -69.6784C52.8575 -46.6343 48.7572 -24.1712 40.735 -3.20882C32.8909 17.2694 23.5316 36.489 12.7906 54.5466C-6.86398 87.5151 -31.3766 112.786 -59.2318 132.829C-86.7304 152.581 -115.655 168.073 -145.204 181.58C-155.544 186.324 -166.062 190.439 -176.491 194.844C-176.491 191.778 -176.491 188.696 -176.491 185.598C-176.016 185.404 -175.54 185.21 -175.065 185.017C-137.761 170.784 -101.705 152.532 -67.4769 128.23C-29.8612 101.458 0.489777 64.6163 22.7739 16.4948C31.5984 -2.57947 39.3088 -22.2831 43.4536 -44.2137C48.4453 -70.4046 50.4509 -97.0796 50.228 -123.948C50.0052 -149.219 48.9355 -174.442 48.2224 -199.713Z" fill="#FF0000" fill-opacity="0.54"/>
<path d="M-176.491 177.319C-176.491 173.898 -176.491 170.477 -176.491 167.056C-175.689 166.911 -174.887 166.814 -174.129 166.572C-142.352 155.34 -111.911 139.655 -82.853 119.177C-44.3014 91.9206 -13.3264 54.1593 9.62628 5.02119C21.3923 -20.2014 29.994 -46.8764 33.2475 -76.3593C35.9662 -100.565 36.7238 -124.916 36.189 -149.316C35.7879 -166.115 35.0748 -182.914 34.4508 -199.713C36.8278 -199.713 39.1899 -199.713 41.5372 -199.713C41.6263 -198.406 41.8046 -197.099 41.8492 -195.84C42.2948 -184.657 42.8297 -173.425 43.1862 -162.242C44.1221 -133.776 44.1221 -105.358 41.1361 -77.0854C38.8631 -55.639 34.9856 -34.8218 27.6319 -15.3118C5.74884 42.6373 -26.2958 87.9508 -69.1705 119.903C-97.0257 140.623 -126.396 156.599 -156.792 169.477C-163.299 172.236 -169.939 174.705 -176.491 177.319V177.319Z" fill="#FF0000" fill-opacity="0.54"/>
<path d="M-176.491 158.293C-176.491 154.711 -176.491 151.128 -176.491 147.546C-176.268 147.449 -176.001 147.304 -175.778 147.255C-148.903 139.122 -123.41 126.148 -98.9867 109.446C-57.761 81.27 -25.2707 40.9913 -1.73865 -11.6325C7.70984 -32.6433 15.019 -54.7191 18.3171 -78.9251C21.4814 -102.211 22.5511 -125.691 22.1945 -149.316C21.9717 -166.115 21.2586 -182.914 20.7238 -199.713C23.1899 -199.713 25.6709 -199.713 28.1667 -199.713C28.1221 -198.745 28.0775 -197.776 28.1221 -196.808C28.345 -190.466 28.6569 -184.124 28.8798 -177.782C29.9048 -149.026 30.3505 -120.317 27.721 -91.609C25.8491 -70.6951 22.5511 -50.1684 15.6876 -31.0457C-1.64951 17.0758 -26.2512 57.3545 -59.0089 88.8223C-82.2736 111.14 -107.9 127.6 -134.73 141.059C-148.368 147.885 -162.318 153.597 -176.491 158.293H-176.491Z" fill="#FF0000" fill-opacity="0.54"/>
<path d="M-6.37376 -199.713C-3.90765 -199.713 -1.44154 -199.713 1.02457 -199.713C1.11371 -196.953 1.15828 -194.194 1.20285 -191.434C1.91594 -165.97 2.09421 -140.553 -0.0896454 -115.234C-1.87238 -94.6106 -5.17043 -74.5196 -11.9002 -55.5905C-27.4546 -11.7293 -49.4713 25.5479 -78.3961 55.5149C-107.366 85.5303 -139.811 105.766 -176.491 113.416C-176.491 108.542 -176.491 103.669 -176.491 98.7951C-175.644 98.6983 -174.753 98.6983 -173.906 98.5531C-155.054 95.3579 -137.271 87.3699 -120.379 76.1868C-81.4268 50.3348 -51.6552 11.7505 -29.5938 -37.3876C-21.215 -56.0746 -14.2178 -75.5847 -10.7415 -97.0312C-5.25957 -130.968 -5.39325 -165.292 -6.37376 -199.713Z" fill="#FF0000" fill-opacity="0.54"/>
<path d="M-176.491 137.331C-176.491 133.264 -176.491 129.198 -176.491 125.131C-175.198 124.841 -173.906 124.647 -172.658 124.308C-106.385 104.701 -54.463 58.1775 -18.2735 -17.684C-10.3849 -34.2409 -3.52139 -51.5239 0.712601 -70.4046C5.70425 -92.5773 7.79895 -115.331 8.02179 -138.278C8.20007 -158.756 7.62068 -179.235 7.35327 -199.713C9.70053 -199.713 12.0478 -199.713 14.3951 -199.713C15.7321 -167.858 16.6235 -136.051 13.9939 -104.245C12.3449 -84.202 9.35884 -64.4983 3.03014 -46.005C-11.7665 -2.67628 -33.1593 34.262 -60.7917 64.8584C-84.0117 90.5651 -110.396 109.01 -138.742 122.953C-151.042 129.004 -163.566 133.991 -176.491 137.331V137.331Z" fill="#FF0000" fill-opacity="0.54"/>
</g>
</svg>
