<svg width="342" height="186" viewBox="0 0 342 186" fill="none" xmlns="http://www.w3.org/2000/svg">
<mask id="mask0_738_2076" style="mask-type:alpha" maskUnits="userSpaceOnUse" x="0" y="0" width="342" height="186">
<rect width="342" height="185.009" fill="#1E1E1E"/>
</mask>
<g mask="url(#mask0_738_2076)">
<path d="M26.6 127.343L-0.71254 184.828L-4.86874 184.828L9.97501 153.112C2.75501 156.989 9.89585 136.667 14.3688 126.022L-8.78749 169.19L-8.78749 157.077L-4.86874 150.249L40.1375 70.2987C54.1896 44.089 83.7662 -10.8411 89.6562 -20.8844C95.5462 -30.9277 95.3562 -25.0691 94.525 -20.8844L20.425 114.569C22.0083 111.779 23.7262 110.428 17.9312 127.343C12.1362 144.258 18.1291 133.51 21.85 126.022C27.55 118.797 27.3916 123.893 26.6 127.343Z" fill="#580100"/>
<path d="M28.2625 72.5008L75.1687 -8.77101C80.6787 -10.7092 80.0771 -7.96342 79.0875 -6.34827L-9.02505 145.844L-12.35 143.201L28.2625 72.5008Z" fill="#580100"/>
<path d="M38.3562 26.251C43.5812 19.7317 49.0041 3.85905 51.0625 -3.26233L62.225 -1.28009L60.8 1.3629L-8.55003 129.988L-8.55003 110.827L8.07498 80.212C15.9916 64.9414 33.1312 32.7704 38.3562 26.251Z" fill="#580100"/>
<path d="M-8.31245 61.0479C-10.3312 70.5186 -13.7512 87.6539 -11.2812 80.4298C-8.84019 73.2904 24.3431 24.1185 41.2063 -0.418991L40.2563 -5.9078L8.55005 39.023L28.8563 0.0389154L24.9376 -1.28258L-8.31245 61.0479Z" fill="#580100"/>
</g>
</svg>
