<svg width="343" height="186" viewBox="0 0 343 186" fill="none" xmlns="http://www.w3.org/2000/svg">
<rect width="342" height="185.009" fill="#1E1E1E"/>
<mask id="mask0_738_2071" style="mask-type:alpha" maskUnits="userSpaceOnUse" x="1" y="0" width="342" height="186">
<rect x="1" width="342" height="185.009" fill="#1E1E1E"/>
</mask>
<g mask="url(#mask0_738_2071)">
<path d="M318.966 57.485L346.279 0H350.435L335.591 31.7158C342.811 27.8395 335.67 48.1611 331.197 58.8065L354.354 15.6377V27.7514L350.435 34.5791L305.429 114.529C291.377 140.739 261.8 195.669 255.91 205.713C250.02 215.756 250.21 209.897 251.041 205.713L325.141 70.2594C323.558 73.0492 321.84 74.4001 327.635 57.485C333.43 40.5699 327.437 51.318 323.716 58.8065C318.016 66.0306 318.175 60.9355 318.966 57.485Z" fill="#580100"/>
<path d="M317.304 112.327L270.398 193.599C264.888 195.537 265.489 192.792 266.479 191.176L354.591 38.9844L357.916 41.6274L317.304 112.327Z" fill="#580100"/>
<path d="M307.21 158.581C301.985 165.1 296.562 180.973 294.504 188.094L283.341 186.112L284.766 183.469L354.116 54.8438V74.0054L337.491 104.62C329.575 119.891 312.435 152.062 307.21 158.581Z" fill="#580100"/>
<path d="M353.879 123.784C355.897 114.313 359.317 97.1781 356.847 104.402C354.406 111.542 321.223 160.714 304.36 185.251L305.31 190.74L337.016 145.809L316.71 184.793L320.629 186.115L353.879 123.784Z" fill="#580100"/>
</g>
</svg>
