<svg width="104" height="84" viewBox="0 0 104 84" fill="none" xmlns="http://www.w3.org/2000/svg">
<path d="M11.9612 64.8006C29.5432 69.6562 39.6754 77.4874 43.5737 81.9714C44.0768 82.5501 43.687 83.4032 42.9218 83.4525C30.7977 84.2327 19.4936 81.8513 11.8082 79.3557C6.64025 77.6776 0.667567 74.2602 1.01048 68.8375C1.14531 66.7052 2.56476 65.3917 4.29693 64.6451C6.7023 63.6084 9.43647 64.1034 11.9612 64.8006Z" fill="#580100"/>
<path d="M41.8543 10.8069C54.1617 28.0064 54.691 41.3618 54.4635 47.8048C54.4358 48.5906 53.5448 49.0168 52.9142 48.5472C41.3457 39.9315 34.5186 29.1989 30.4376 21.4086C27.9565 16.6724 25.4147 10.4122 28.9584 6.40842C30.9284 4.18255 33.9624 4.7022 36.5622 5.94394C38.753 6.9903 40.4415 8.83253 41.8543 10.8069Z" fill="#580100"/>
<path d="M88.9061 8.83608C92.5879 23.1097 90.2113 34.2059 88.5322 39.1364C88.2788 39.8807 87.315 39.9769 86.8942 39.3128C81.7685 31.2231 79.5525 22.0434 78.5014 15.2349C77.6856 9.95075 77.5568 1.53501 82.9012 1.69491C83.7957 1.72167 84.6583 2.09641 85.4327 2.64653C87.4119 4.05257 88.2997 6.48522 88.9061 8.83608Z" fill="#580100"/>
</svg>
